<?xml version="1.0" encoding="iso-8859-1"?>
<!-- Generator: Adobe Illustrator 19.0.0, SVG Export Plug-In . SVG Version: 6.00 Build 0)  -->
<svg version="1.1" id="Layer_1" xmlns="http://www.w3.org/2000/svg" xmlns:xlink="http://www.w3.org/1999/xlink" x="0px" y="0px"
	 viewBox="0 0 300.16 300.16" style="enable-background:new 0 0 300.16 300.16;" xml:space="preserve">
<g>
	<g>
		<path style="fill:#000;" d="M87.143,58.095c-26.738,0-48.413,21.674-48.413,48.413s21.674,48.413,48.413,48.413
			s48.413-21.674,48.413-48.413H87.143V58.095z"/>
		<path style="fill:#000;" d="M300.16,29.048V0H0v29.048h14.524v174.286H0v29.048h84.151l-30.384,60.773l8.661,4.333
			l32.548-65.106h50.262v62.937h9.683v-62.937h50.262l32.553,65.101l2.469-1.235c3.229,2.425,7.199,3.912,11.542,3.912
			c5.81,0,10.97-2.624,14.524-6.691c3.553,4.067,8.714,6.691,14.524,6.691c10.68,0,19.365-8.685,19.365-19.365V141.574
			c0-14.969-9-27.857-21.917-32.834c10.055-4.575,17.075-14.693,17.075-26.438c0-8.574-3.757-16.267-9.683-21.592V29.048H300.16z
			 M9.683,19.365V9.683h280.795v9.683h-4.841H14.524L9.683,19.365L9.683,19.365z M9.683,213.017h4.841h217.858v9.683H9.683V213.017z
			 M232.382,232.382v32.746l-16.373-32.746L232.382,232.382L232.382,232.382z M290.477,141.574v139.221
			c0,5.34-4.343,9.683-9.683,9.683c-5.34,0-9.683-4.343-9.683-9.683v-67.778h-9.683v67.778c0,5.34-4.343,9.683-9.683,9.683
			s-9.683-4.343-9.683-9.683v-48.413v-29.048v-59.093l-27.31,12.137c-3.292,1.477-7.214,0.736-9.77-1.815l-24.855-24.855
			c-2.116-2.12-2.116-5.558,0-7.678c2.12-2.12,5.558-2.12,7.678,0l24.56,24.56l3.287-2.135c15.018-9.76,37.781-24.54,38.827-25.189
			c4.439-2.493,9.508-3.5,14.65-2.91C281.1,117.721,290.477,128.798,290.477,141.574z M266.271,101.667
			c-10.68,0-19.365-8.685-19.365-19.365s8.685-19.365,19.365-19.365c10.68,0,19.365,8.685,19.365,19.365
			S276.951,101.667,266.271,101.667z M275.953,54.949c-3.035-1.075-6.284-1.694-9.683-1.694c-16.02,0-29.048,13.028-29.048,29.048
			c0,11.735,7.01,21.844,17.046,26.424c-1.549,0.591-3.069,1.278-4.531,2.101c-0.523,0.295-12.655,8.158-36.072,23.379
			l-19.012-19.012c-4.454-4.454-11.014-5.529-16.499-3.248l-24.013-37.108l-8.129,5.262l24.841,38.391
			c-1.268,2.242-1.999,4.749-1.999,7.388c0,4.033,1.573,7.833,4.43,10.685l24.855,24.855c5.364,5.369,13.619,6.904,20.551,3.82
			l13.691-6.095v44.191H24.206V29.048h251.747V54.949z"/>
	</g>
</g>
<g>
</g>
<g>
</g>
<g>
</g>
<g>
</g>
<g>
</g>
<g>
</g>
<g>
</g>
<g>
</g>
<g>
</g>
<g>
</g>
<g>
</g>
<g>
</g>
<g>
</g>
<g>
</g>
<g>
</g>
</svg>
