<svg xmlns="http://www.w3.org/2000/svg" width="24" height="24" viewBox="0 0 24 24" id="emoji-people" x="884" y="885"><path opacity=".4" d="M11.908 1.792c-5.66 0-10.293 4.632-10.293 10.293 0 5.66 4.632 10.293 10.293 10.293S22.2 17.746 22.2 12.085c0-5.66-4.63-10.293-10.292-10.293zm0 18.528c-4.53 0-8.235-3.706-8.235-8.235 0-4.53 3.706-8.235 8.235-8.235 4.53 0 8.235 3.706 8.235 8.235 0 4.53-3.706 8.235-8.235 8.235zm2.745-8.857c.728 0 1.365-.716 1.365-1.535 0-.82-.637-1.535-1.365-1.535s-1.364.716-1.364 1.535c0 .82.636 1.535 1.363 1.535zm-5.49 0c.727 0 1.364-.716 1.364-1.535 0-.82-.637-1.535-1.365-1.535s-1.364.716-1.364 1.535c0 .82.636 1.535 1.364 1.535zm2.763 6.346c2.474 0 4.624-1.66 5.485-3.873 0 0-2.757.424-5.508.424-2.734 0-5.46-.423-5.46-.423.86 2.212 3.01 3.872 5.484 3.872z"/></svg>